<svg width="443" height="376" viewBox="0 0 443 376" fill="none" xmlns="http://www.w3.org/2000/svg">
<path d="M172.74 159C175.01 152.96 178.06 147.19 181.85 141.84C192.41 126.91 208.37 113.41 226.99 109.8C250.77 105.19 268.54 123.32 291.49 124.64C314.83 125.98 333.17 107.13 353.86 99.35C370.58 93.07 389.28 91.75 405.77 99.47C434.82 113.05 454.63 146.19 434.02 175.87C427.21 185.68 417.05 192.3 409.45 201.38C401.61 210.75 396.13 222.64 394.43 234.75C392.26 250.19 393.76 266.7 384.82 280.34C368.12 305.83 327.76 318.96 300.29 304.91C283.55 296.36 271.52 280.57 254.69 272.46C241.99 266.35 227.55 265.22 214.76 259.27C194.74 249.96 179.73 230.6 172.25 210.19C166.12 193.5 166.6 175.3 172.74 159Z" fill="#D2E1F7"/>
<path d="M254.09 335.54H189.81V366.42H254.09V335.54Z" fill="#405089"/>
<path d="M370.11 336.88H73.79C69.4 336.88 65.83 333.32 65.83 328.92V147.15C65.83 142.76 69.38 139.19 73.77 139.19C117.3 139.19 326.58 139.19 370.11 139.19C374.5 139.19 378.05 142.75 378.05 147.15V328.93C378.06 333.32 374.5 336.88 370.11 336.88Z" fill="#212E57"/>
<path d="M378.06 147.15V318.92H65.83V147.15C65.83 142.75 69.38 139.2 73.77 139.2H370.12C374.52 139.19 378.06 142.75 378.06 147.15Z" fill="#212E57"/>
<path d="M370.386 310.518V147.158H73.516V310.518H370.386Z" fill="#D2E1F7"/>
<path d="M343.711 287.883V169.493H101.341V287.883H343.711Z" fill="white"/>
<path d="M281.42 370.33H162.48V367.35C162.48 365.87 163.68 364.68 165.15 364.68H278.74C280.22 364.68 281.41 365.88 281.41 367.35V370.33H281.42Z" fill="#405089"/>
<path d="M264.15 22.9C261.64 22.9 259.21 23.17 256.85 23.64C253.72 14.52 245.09 7.95 234.91 7.95C229.43 7.95 224.41 9.86 220.44 13.03C215.85 5.24 207.4 0 197.71 0C183.13 0 171.32 11.82 171.32 26.39C171.32 26.64 171.35 26.88 171.36 27.13C153.38 29.73 139.54 45.19 139.54 63.91C139.54 64 139.54 64.09 139.54 64.18C139.63 77.26 150.74 87.61 163.82 87.61H273.76C288.97 87.61 301.31 75.32 301.38 60.11C301.37 39.54 284.69 22.9 264.15 22.9Z" fill="#465EB7"/>
<path d="M126.37 113.12L99.55 125.16C98.43 125.66 97.11 125.16 96.6 124.04L84.56 97.22C84.06 96.1 84.56 94.78 85.68 94.27L112.5 82.23C113.62 81.73 114.94 82.23 115.45 83.35L127.49 110.17C128 111.3 127.5 112.62 126.37 113.12Z" fill="#EFAD29"/>
<path d="M110.96 101.49L99.88 100.36L104.44 110.52L110.96 101.49Z" fill="#F9FBFC"/>
<path d="M265.26 237.73C265.22 246.56 258.05 253.7 249.24 253.7H185.39C177.8 253.7 171.35 247.7 171.29 240.11V239.94C171.29 229.07 179.33 220.1 189.77 218.59C189.77 218.44 189.75 218.31 189.75 218.16C189.75 209.69 196.6 202.83 205.08 202.83C210.7 202.83 215.61 205.87 218.27 210.4C220.57 208.55 223.5 207.44 226.67 207.44C232.6 207.44 237.6 211.25 239.43 216.56C240.79 216.3 242.2 216.13 243.66 216.13C255.58 216.12 265.26 225.78 265.26 237.73Z" fill="#9FBFF4"/>
<path d="M230.65 240.85H224.23V253.7H212.34V240.85H205.9L218.28 228.62L230.65 240.85Z" fill="white"/>
<path d="M229.93 239.13L219.27 228.6L218.29 227.62L217.29 228.6L206.64 239.13L204.19 241.56H211.63V253.7H213.05V240.15H207.65L218.29 229.6L228.93 240.15H223.51V253.7H224.93V241.56H232.37L229.93 239.13Z" fill="white"/>
<path d="M355.01 122.22L324.87 117.04C322.34 116.61 320.64 114.2 321.08 111.67L326.26 81.53C326.69 79 329.1 77.3 331.63 77.74L361.77 82.92C364.3 83.35 366 85.76 365.56 88.29L360.38 118.43C359.95 120.95 357.54 122.65 355.01 122.22Z" fill="#9FBFF4"/>
<path d="M355.41 94.24L338.33 93.76L338.79 91.08L355.87 91.56L355.41 94.24Z" fill="white"/>
<path d="M338.58 92.27L339.2 92.37L336.63 107.34L336.01 107.23" fill="white"/>
<path d="M354.83 93.72L355.45 93.82L353.26 106.55L352.64 106.45" fill="white"/>
<path d="M333.89 109.51C335.431 109.51 336.68 108.261 336.68 106.72C336.68 105.179 335.431 103.93 333.89 103.93C332.349 103.93 331.1 105.179 331.1 106.72C331.1 108.261 332.349 109.51 333.89 109.51Z" fill="white"/>
<path d="M350.46 109.16C352.001 109.16 353.25 107.911 353.25 106.37C353.25 104.829 352.001 103.58 350.46 103.58C348.919 103.58 347.67 104.829 347.67 106.37C347.67 107.911 348.919 109.16 350.46 109.16Z" fill="white"/>
<path d="M318.4 298.81H349.78C350.48 298.81 351.04 298.25 351.04 297.55C351.04 296.85 350.48 296.29 349.78 296.29H318.4C317.7 296.29 317.14 296.85 317.14 297.55C317.14 298.25 317.71 298.81 318.4 298.81Z" fill="#212E57"/>
<path d="M329.49 369.3L317.59 281.69H346.42L358.37 369.64C358.46 370.33 359.1 370.81 359.79 370.72C360.48 370.63 360.96 369.99 360.87 369.3L348.77 280.26C348.68 279.63 348.15 279.17 347.52 279.17H316.14C315.77 279.17 315.43 279.33 315.19 279.6C314.95 279.87 314.84 280.24 314.89 280.6L326.99 369.64C327.08 370.33 327.72 370.81 328.41 370.72C329.1 370.63 329.58 369.99 329.49 369.3Z" fill="#212E57"/>
<path d="M321.21 317.58H352.59C353.29 317.58 353.85 317.02 353.85 316.32C353.85 315.62 353.29 315.06 352.59 315.06H321.21C320.51 315.06 319.95 315.62 319.95 316.32C319.94 317.02 320.51 317.58 321.21 317.58Z" fill="#212E57"/>
<path d="M323.64 337.22H355.02C355.72 337.22 356.28 336.66 356.28 335.96C356.28 335.26 355.72 334.7 355.02 334.7H323.64C322.94 334.7 322.38 335.26 322.38 335.96C322.38 336.66 322.95 337.22 323.64 337.22Z" fill="#212E57"/>
<path d="M326.4 356.32H357.78C358.48 356.32 359.04 355.76 359.04 355.06C359.04 354.36 358.48 353.8 357.78 353.8H326.4C325.7 353.8 325.14 354.36 325.14 355.06C325.14 355.75 325.7 356.32 326.4 356.32Z" fill="#212E57"/>
<path d="M347.87 250.74L279.57 233C278.3 232.67 277.54 231.38 277.87 230.11L295.61 161.81C295.94 160.54 297.23 159.78 298.5 160.11L366.8 177.85C368.07 178.18 368.83 179.47 368.5 180.74L350.76 249.04C350.43 250.31 349.14 251.07 347.87 250.74Z" fill="#465EB7"/>
<path d="M344.79 244.39L285.35 228.95C284.51 228.73 284.01 227.88 284.23 227.04L299.67 167.6C299.89 166.76 300.74 166.26 301.58 166.48L361.02 181.92C361.86 182.14 362.36 182.99 362.14 183.83L346.7 243.27C346.48 244.1 345.63 244.61 344.79 244.39Z" fill="#F9FBFC"/>
<path d="M311.51 191.05C315.37 191.05 318.5 187.92 318.5 184.06C318.5 180.2 315.37 177.07 311.51 177.07C307.65 177.07 304.52 180.2 304.52 184.06C304.52 187.92 307.65 191.05 311.51 191.05Z" fill="#465EB7"/>
<path d="M352.12 211.68L344.4 241.42L344.09 241.43L287.12 226.64L290.18 214.85C296.81 210.93 305.37 213.15 309.26 219.8L310.92 222.64L336.47 207.62C341.91 204.42 348.92 206.24 352.12 211.68Z" fill="#465EB7"/>
<path d="M350.42 230.25V234.85L347.52 235.44L344.41 234.85V230.85C344.41 230.85 341.02 231.12 340.05 229.5C339.09 227.88 338.85 222.08 340.17 219.65C341.49 217.22 346.78 217.18 348.61 218.18C352.79 220.45 350.42 230.25 350.42 230.25Z" fill="#EA9F96"/>
<path d="M343.67 225.34C343.67 225.34 343.69 228.71 345.37 229.61C347.05 230.51 349.82 230.72 350.42 230.24C351.02 229.76 352.49 226.88 352.58 222.25C352.67 217.62 350.81 215.67 348.73 215.31C346.66 214.95 343.93 215.4 342.15 214.27C340.3 213.1 336.86 211.63 336.65 214.9C336.42 218.42 339.62 218.46 340.2 219.75C340.77 221.04 340.02 222 340.86 222.57C341.76 223.18 343.08 222.68 343.44 223.68C343.75 224.52 343.67 225.34 343.67 225.34Z" fill="#212E57"/>
<path d="M350.75 298.29C355.48 294.48 354.51 322.97 353.19 330.21C351.87 337.46 350.91 329.85 350.11 318.24C349.3 306.63 348.89 299.78 350.75 298.29Z" fill="#EA9F96"/>
<path d="M350.26 330.94L350.37 329.36L354.04 329.34L353.98 331.02L351.98 332.49L350.26 330.94Z" fill="#EA9F96"/>
<path d="M318.73 281.01C321.62 275.67 331.7 302.33 333.27 309.53C334.84 316.73 331.03 310.08 325.82 299.67C320.6 289.26 317.59 283.11 318.73 281.01Z" fill="#EA9F96"/>
<path d="M330.26 310.72L329.57 309.08L333.14 307.49L333.76 309.05L332.73 311.16L330.26 310.72Z" fill="#EA9F96"/>
<path d="M329.91 310.32C329.91 310.32 329.89 311.44 329.01 313.63C328.23 315.56 326.9 315.82 327.22 316.24C327.53 316.65 335.53 312.73 335.53 312.73L333.7 308.62C333.69 308.64 329.91 310.33 329.91 310.32Z" fill="#465EB7"/>
<path d="M349.98 330.6C349.98 330.6 349.53 331.63 347.87 333.31C346.4 334.79 345.07 334.51 345.21 335.03C345.34 335.53 354.23 335.01 354.23 335.01L354.13 330.52C354.12 330.51 349.97 330.6 349.98 330.6Z" fill="#465EB7"/>
<path d="M351.03 267.89C352.84 267.38 354.64 268.77 354.94 270.88C355.18 272.56 355.29 274.84 354.97 277.78C354.17 285.11 354.92 297.92 352.56 299.32C350.2 300.72 347.39 292.63 346.97 285.48C346.59 279.02 345.28 271.05 346.85 269.66C347.64 268.95 349.45 268.33 351.03 267.89Z" fill="#EA9F96"/>
<path d="M347.96 271.25C348.99 272.82 348.21 274.95 346.29 275.88C344.76 276.62 342.62 277.41 339.72 277.99C332.49 279.44 320.5 284.03 318.46 282.2C316.42 280.37 323.28 275.25 329.96 272.69C336.01 270.38 343.21 266.72 345 267.8C345.92 268.35 347.06 269.88 347.96 271.25Z" fill="#EA9F96"/>
<path d="M344.03 236.79C344.22 237.79 343.72 238.8 342.89 239.39C339.17 242.06 326.55 250.82 324.38 248.22C321.82 245.17 333.48 238.06 337.12 236.44C340.14 235.08 343.57 234.37 344.03 236.79Z" fill="#EA9F96"/>
<path d="M327.26 246.38C327 245.51 326.28 244.86 325.42 244.58C321.17 243.19 305.72 238.29 304.43 239.76C302.92 241.47 324.87 249.56 325.84 248.83C326.59 248.28 327.67 247.78 327.26 246.38Z" fill="#EA9F96"/>
<path d="M311.29 244.08C310.83 243.94 307.06 242.57 304.28 241.37C303.13 240.87 301.35 241.4 300.38 240.46C298.78 238.91 299.13 237.35 300.14 237.28C300.65 237.25 301.81 237.79 302.44 238.04C302.66 238.13 302.86 238.25 303.01 238.17C303.32 238.01 303.03 237.26 303.57 237.19C303.81 237.16 304.21 237.75 304.47 238.01C304.92 238.47 305.32 239.03 306 239.14C307.05 239.32 312.2 240.43 312.2 240.43" fill="#EA9F96"/>
<path d="M350.55 241.4C351.4 241.96 352.52 241.88 353.39 241.35C357.29 238.95 370.23 230.68 368.68 227.67C366.85 224.13 355.8 232.15 352.9 234.88C350.47 237.15 348.49 240.04 350.55 241.4Z" fill="#EA9F96"/>
<path d="M368.31 228.39C368.97 227.77 369.21 226.83 369.07 225.93C368.37 221.51 365.7 205.53 363.8 205.04C361.6 204.48 364.38 227.7 365.47 228.23C366.31 228.65 367.25 229.39 368.31 228.39Z" fill="#EA9F96"/>
<path d="M365.01 205.81L366.23 210.94L362.91 211.3L362.6 205.95L365.01 205.81Z" fill="#EA9F96"/>
<path d="M357.72 253.19C357.59 253.98 357.45 254.8 357.32 255.66C357.31 255.73 357.3 255.78 357.3 255.85C356.97 258.07 356.64 260.53 356.41 263.3C356.23 265.35 356.11 267.57 356.04 269.99C356.04 269.99 338.14 270.5 337.23 269.19C336.32 267.87 338.74 262.11 337.84 254.03C337.6 251.9 337.33 249.98 337.11 248.24C336.98 247.33 336.87 246.47 336.78 245.66C336.37 242.11 336.31 239.41 337.3 237.11C338.29 234.79 342.24 233.76 343.64 233.46C343.95 233.4 344.13 233.37 344.13 233.37L351 233.26H351.03C351.03 233.26 351.46 233.15 352.15 233.09C353.56 232.97 356.04 233.07 358.01 234.78C358.01 234.78 358.38 238.15 358.47 238.92C358.56 239.7 358.61 240.59 358.64 241.55C358.71 244.98 358.37 249.38 357.72 253.19Z" fill="#EFAD29"/>
<path d="M340.61 234.39C340.61 234.39 335.98 236.55 333.29 238.25C330.52 240 324.99 243.32 324.99 243.32L308.2 239.07L306.95 242.78C306.95 242.78 321.28 249.09 325.7 249.33C329.61 249.54 339.01 244.37 339.01 244.37L340.61 234.39Z" fill="#EFAD29"/>
<path d="M336.77 245.65C336.86 246.47 336.97 247.32 337.1 248.24C338.69 246.57 341.23 243.62 341.23 243.62L336.78 245.59C336.79 245.59 336.78 245.6 336.77 245.65Z" fill="#EFAD29"/>
<path d="M329.46 309.22L333.52 307.73C333.52 307.73 330.96 297.32 329.34 292.97C327.72 288.62 325.72 283.77 325.72 283.77C325.72 283.77 333.04 283.2 336.88 282.89C340.6 282.6 343.94 281.26 344.15 281.18C344.16 281.17 344.16 281.17 344.16 281.17L350.02 329.57L354.15 329.49C354.15 329.49 355.98 318.07 355.78 311.4C355.58 304.72 355.65 300.37 355.65 298.24C355.65 296.12 355.88 292.28 356.59 282.47C357.3 272.67 355.89 269.33 355.89 269.33L337.22 269.16C328.36 271.21 318.51 277.65 317.2 280.89C315.9 284.14 329.46 309.22 329.46 309.22Z" fill="#465EB7"/>
<path d="M344.17 281.18L344.51 284.01C350.79 280.82 352.87 275.36 352.99 274.99C349.16 280.3 344.17 281.18 344.17 281.18Z" fill="#465EB7"/>
<path d="M349.55 234.68C349.55 234.68 362.84 226.6 363.32 226.06C363.8 225.51 362.33 210.57 362.33 210.57L366.33 209.92C366.33 209.92 370.82 226.2 369.87 229.4C368.92 232.6 360.14 238.02 357.58 243.29C356.57 245.37 349.55 234.68 349.55 234.68Z" fill="#EFAD29"/>
<path d="M363.85 206.63C363.53 206.6 363.25 206.55 363.02 206.44C362.39 206.2 362.03 205.71 361.65 204.95C361.13 203.9 360.89 201.18 361.57 201.07C362.25 200.97 362.63 202.78 362.78 202.64C362.79 202.63 362.8 202.6 362.8 202.55L363.83 198.76C364.58 199.38 365.51 200.94 365.61 202.37C365.68 203.48 365.75 206.8 363.85 206.63Z" fill="#EA9F96"/>
<path d="M299.18 238.07L302.72 238.99C302.72 238.99 303.4 238.45 303.06 237.67C302.73 236.89 298.72 236.14 298.73 236.19C298.74 236.24 299.18 238.07 299.18 238.07Z" fill="#465EB7"/>
<path d="M99.62 259.14C99.62 259.14 102.07 255.31 99.13 251.29C96.19 247.27 90.21 248.9 87.59 252.42C84.97 255.94 86.07 261.58 82.67 263.2C79.27 264.82 78.93 266.5 78.31 269.17C77.69 271.84 70.3 273.53 77.29 282.2C84.28 290.87 94.33 264.09 94.33 264.09L99.62 259.14Z" fill="#212E57"/>
<path d="M89.36 268.53L95.86 268.02C95.9 267.73 96.07 266.33 96.2 265.34C96.28 264.76 96.32 264.32 96.32 264.32C96.32 264.32 97.47 264.54 98.12 263.77C98.77 263 99.82 259.6 99.52 257.56C99.22 255.54 96.02 253.2 96.02 253.2L90.13 262.32L89.36 268.53Z" fill="#EA9F96"/>
<path d="M94.04 263.8C94.04 263.8 95.05 265.08 96.2 265.35C96.28 264.77 96.32 264.33 96.32 264.33C96.32 264.33 94.73 264.12 94.04 263.8Z" fill="#EA9F96"/>
<path d="M100.15 257.96C100.15 257.96 99.02 257.91 97.68 254.58C97.68 254.58 94.05 259.89 89.08 259.92L89.05 253.51L95.12 249.93C95.12 249.93 97.91 250.83 98.51 251.56C99.56 252.83 100.15 257.96 100.15 257.96Z" fill="#212E57"/>
<path d="M96.84 298.48C94.53 299.07 93.2 301.64 93.93 304.06C94.51 305.98 95.55 308.44 97.4 311.34C102.03 318.56 105.53 328.18 108.91 328.18C112.3 328.18 113.54 322.25 110.38 314.47C107.52 307.44 104.96 298.23 102.48 297.75C101.22 297.49 98.86 297.96 96.84 298.48Z" fill="#D5BB95"/>
<path d="M94.96 328.64C92.4 321.23 75.2 346.45 71.63 354.43C68.06 362.41 72.9 358.71 81.84 348.24C90.77 337.77 95.97 331.56 94.96 328.64Z" fill="#D5BB95"/>
<path d="M71.71 353.39L69.63 356.22L73.03 358.8L75.23 356.46L71.71 353.39Z" fill="#EA9F96"/>
<path d="M111.32 323.96C104.63 319.87 107.4 351.53 109.74 359.96C112.08 368.39 113.44 361.19 113.67 347.43C113.9 333.67 113.95 325.57 111.32 323.96Z" fill="#D5BB95"/>
<path d="M108.78 357.14L109.18 362.54H113.39L113.62 357.47L108.78 357.14Z" fill="#EA9F96"/>
<path d="M92.57 298.01C90.1 297.44 87.68 299.1 87.29 301.6C86.98 303.59 86.86 306.29 87.33 309.76C88.5 318.42 87.52 328.7 90.74 330.32C93.97 331.94 97.81 327.23 98.29 318.76C98.72 311.11 100.41 301.65 98.26 300.04C97.18 299.22 94.72 298.51 92.57 298.01Z" fill="#D5BB95"/>
<path d="M71.28 353.75L75.26 357.14C75.26 357.14 97.33 333.47 98.32 329.9C98.63 328.72 98.88 324.03 99.19 317.01C100.34 321.48 103.81 326.03 105.27 328.09C105.4 328.25 105.51 328.4 105.58 328.53C105.75 328.79 105.87 328.99 105.92 329.11C105.93 329.14 105.93 329.15 105.93 329.18C105.55 346.6 108.33 358.74 108.33 358.74L114.23 358.8C114.23 358.8 114.74 333.4 114.45 326.32C114.2 320.43 106.15 299.89 106.15 299.89C106.15 299.89 91.16 289.98 89.74 299.59C88.78 299.72 87.96 299.83 87.37 299.93C86.76 300.01 86.4 300.08 86.4 300.08C86.4 300.08 83.81 304.02 84.16 310.64C84.52 317.27 88.64 327.72 87.29 329.37C77.34 341.47 71.28 353.75 71.28 353.75Z" fill="#465EB7"/>
<path d="M99.19 317.02C100.34 321.49 103.81 326.04 105.27 328.1C105.4 328.26 105.51 328.41 105.58 328.54C105.75 328.8 105.87 329 105.92 329.12C105.93 329.15 105.93 329.16 105.93 329.19C105.55 346.61 108.33 358.75 108.33 358.75L114.23 358.81C108.91 358.03 107.97 350.76 107.56 344.84C107.15 338.92 107.35 330.61 107.35 329.61C107.35 328.61 106.56 327.38 103.79 323.21C101.02 319.03 99.58 313.76 99.58 313.76L99.19 317.02Z" fill="#465EB7"/>
<path d="M75.26 357.15C72.78 352.4 76.02 348.42 79.64 342.03C83.25 335.64 88.4 331.99 88.94 329.53C89.47 327.09 88.32 322.02 86.98 314.81C85.66 307.58 92.34 306.75 92.34 306.75L87.38 299.93C86.77 300.02 86.41 300.08 86.41 300.08C86.41 300.08 83.81 304.01 84.17 310.64C84.53 317.27 88.65 327.72 87.3 329.36C77.34 341.46 71.28 353.74 71.28 353.74L75.26 357.15Z" fill="#465EB7"/>
<path d="M113.5 361.16C113.5 361.16 115.08 363.03 118.47 365.42C121.86 367.81 122.7 367.23 122.81 368.16C122.92 369.09 109.12 368.79 109.12 368.79L109.04 361.1C109.05 361.09 113.49 360.96 113.5 361.16Z" fill="#465EB7"/>
<path d="M73.22 358.55C73.22 358.55 73.32 361 74.53 364.96C75.74 368.93 76.76 368.99 76.27 369.79C75.78 370.59 65.07 361.88 65.07 361.88L69.73 355.76C69.74 355.77 73.34 358.39 73.22 358.55Z" fill="#465EB7"/>
<path d="M97.32 266.89C96.56 267.6 96.38 268.72 96.7 269.71C98.15 274.13 103.27 288.87 106.61 288.04C110.54 287.06 105.22 274.26 103.21 270.74C101.53 267.82 99.14 265.18 97.32 266.89Z" fill="#CAD4BA"/>
<path d="M105.55 285.14C106.24 284.6 107.16 284.51 108 284.77C112.1 286.07 121.78 288.53 121.97 290.41C122.19 292.59 105.64 288.98 105.29 287.87C105.02 287 104.45 286 105.55 285.14Z" fill="#EA9F96"/>
<path d="M97 272.96C97 272.96 101.13 284 104.13 287.29C104.19 287.36 104.25 287.43 104.32 287.5C106.85 290.03 115.1 291.41 115.1 291.41L115.16 291.22L116.44 287.26C116.44 287.26 109.16 284.09 108.87 283.66C108.57 283.23 105.82 274.74 104.18 271.6C102.54 268.47 99.86 264.87 97.1 266.4C94.31 267.91 97 272.96 97 272.96Z" fill="#EFAD29"/>
<path d="M104.13 287.29C104.19 287.36 104.25 287.43 104.32 287.5C106.85 290.03 115.1 291.41 115.1 291.41L115.16 291.22C113.74 290.69 107.75 288.42 106.44 287.48C104.95 286.41 105.82 284.03 106.39 282.16C106.97 280.28 106.47 279.13 106.47 279.13C106.47 279.13 105.2 280.37 105.15 280.45C105.12 280.49 104.48 284.9 104.13 287.29Z" fill="#EFAD29"/>
<path d="M116.08 286.97L114.65 291.31C114.62 291.39 114.67 291.48 114.75 291.5L115.49 291.69C115.56 291.71 115.64 291.67 115.67 291.6L117.12 287.41C117.14 287.34 117.11 287.26 117.04 287.23L116.28 286.89C116.21 286.85 116.11 286.89 116.08 286.97Z" fill="white"/>
<path d="M82.68 280.93C82.9 283.67 83.14 287.34 83.36 290.96C83.78 297.81 84.05 305.19 84.05 305.19C87.87 306.7 93.77 307.26 97.91 306.35C103.18 305.19 107.87 302.7 107.87 302.7C107.87 302.7 105.69 297.39 104.74 292.55C103.18 284.61 106.72 281.86 106.46 279.12C106.42 278.71 106.35 278.35 106.26 278.02C105.76 276.13 104.56 275.33 103.62 273.51C102.53 271.37 101.12 267.45 99.87 266.49C99.15 265.94 97.83 265.65 96.83 265.5L96.82 265.6C96.82 265.6 98.88 270.76 95.94 271.36C91.73 272.2 89.67 268.99 88.93 265.71L88.92 265.59C87.02 265.84 85.6 266.39 84.59 267.41C82.51 269.47 82.1 273.49 82.68 280.93Z" fill="#EFAD29"/>
<path d="M172.15 243.81L150.26 338.69L87.66 324.25L106.1 244.35L124.11 232.73L172.15 243.81Z" fill="#9FBFF4"/>
<path d="M124.11 232.73L120.66 247.71L106.1 244.35L124.11 232.73Z" fill="#D4DEF9"/>
<path d="M156.051 260.217L116.841 251.171L116.537 252.486L155.747 261.533L156.051 260.217Z" fill="white"/>
<path d="M154.23 268.128L115.02 259.082L114.717 260.397L153.926 269.444L154.23 268.128Z" fill="white"/>
<path d="M152.412 276.029L113.202 266.983L112.898 268.298L152.108 277.345L152.412 276.029Z" fill="white"/>
<path d="M150.581 283.938L111.371 274.892L111.068 276.207L150.278 285.254L150.581 283.938Z" fill="white"/>
<path d="M148.76 291.849L109.55 282.802L109.247 284.118L148.457 293.164L148.76 291.849Z" fill="white"/>
<path d="M146.932 299.748L107.723 290.701L107.419 292.017L146.629 301.063L146.932 299.748Z" fill="white"/>
<path d="M145.112 307.659L105.902 298.612L105.598 299.928L144.808 308.974L145.112 307.659Z" fill="white"/>
<path d="M143.281 315.567L104.071 306.521L103.768 307.836L142.978 316.883L143.281 315.567Z" fill="white"/>
<path d="M90.41 276.19C90.41 276.19 90.13 286.14 91.21 287.41C92.29 288.68 97.69 292.48 97.69 292.48C97.69 292.48 89.66 292.62 89.52 292.29C89.38 291.96 86.14 281.91 86.14 281.91L90.41 276.19Z" fill="#EFAD29"/>
<path d="M82.68 280.93C82.9 283.67 83.14 287.34 83.36 290.96C83.59 291.27 83.84 291.55 84.11 291.77C86.88 294.03 96.27 296.19 96.27 296.19L85.23 288.49L85.32 274.45L85.86 267.01C85.86 267.01 85.31 267.07 84.57 267.4C82.51 269.47 82.1 273.49 82.68 280.93Z" fill="#EFAD29"/>
<path d="M88.93 265.58L88.94 265.7C89.68 268.98 91.74 272.18 95.95 271.35C98.9 270.76 96.83 265.59 96.83 265.59L96.84 265.5C96.64 265.47 96.45 265.45 96.29 265.43C95.83 265.37 95.52 265.36 95.52 265.36L89.91 265.52C89.77 265.52 89.62 265.53 89.49 265.54C89.29 265.54 89.11 265.56 88.93 265.58Z" fill="#EA9F96"/>
<path d="M88.94 265.7C89.68 268.98 91.74 272.19 95.95 271.35C98.89 270.76 96.83 265.59 96.83 265.59L96.84 265.5C96.64 265.47 96.46 265.44 96.29 265.43C96.6 266.37 97.86 270.55 95.54 270.92C92.96 271.33 90.49 269.42 89.48 265.54C89.28 265.55 89.1 265.57 88.91 265.59L88.94 265.7Z" fill="#465EB7"/>
<path d="M85.4 267.38C84.44 267.76 83.85 268.74 83.79 269.77C83.51 274.42 82.84 290 86.26 290.46C90.27 291 90.04 277.13 89.47 273.13C88.98 269.8 87.73 266.46 85.4 267.38Z" fill="#CAD4BA"/>
<path d="M102.92 298.37C103.28 298.92 103.88 299.31 104.44 299.62C104.7 299.77 104.97 299.89 105.23 300.02C105.37 300.09 105.52 300.19 105.68 300.22C105.86 300.25 106 300.23 106.17 300.19C106.36 300.14 106.54 300.08 106.71 300C107.04 299.84 107.32 299.58 107.6 299.33C107.73 299.21 107.96 299.04 108.02 298.87C108.08 298.69 107.78 298.63 107.62 298.55C107.27 298.38 106.91 298.22 106.56 298.05C106.34 297.94 106.19 297.86 106.18 297.83C106.17 297.81 106.19 297.8 106.23 297.79C106.24 297.78 106.26 297.79 106.3 297.78C106.42 297.77 106.62 297.79 106.84 297.81C107.33 297.84 107.47 297.75 107.58 297.43C107.77 296.87 106.03 296.08 105.02 296.07C104.67 296.07 104.37 296.08 104.11 296.15C103.75 296.23 103.46 296.38 103.19 296.68C103.08 296.8 102.97 296.94 102.86 297.11C102.59 297.55 102.66 297.98 102.92 298.37Z" fill="#EA9F96"/>
<path d="M84.89 290.5C85.03 291.3 95.08 295.83 101.21 297.77C101.44 297.85 101.66 297.91 101.87 297.98C104.2 298.68 105.82 298.92 105.84 298.32C105.85 298.14 105.73 297.92 105.51 297.67C105.45 297.6 105.38 297.53 105.3 297.45C105.29 297.44 105.27 297.41 105.25 297.4C105.25 297.4 105.25 297.4 105.24 297.4C104.76 296.93 104 296.37 103.06 295.77C98.78 292.99 90.78 289.13 87.99 287.81C87.2 287.44 86.27 287.41 85.51 287.85C84.3 288.54 84.73 289.61 84.89 290.5Z" fill="#EA9F96"/>
<path d="M83.03 273.42C83.03 273.42 82.9 286.22 84.34 290.21C85.01 292.07 95.99 296.3 95.99 296.3L97.92 292.54C97.92 292.54 89.68 288.34 89.6 287.82C89.52 287.31 90.68 278.15 90.25 274.64C89.82 271.13 89.03 266.82 85.88 267.02C82.72 267.21 83.03 273.42 83.03 273.42Z" fill="#EFAD29"/>
<path d="M97.33 292.31L95.39 295.93C95.34 296.03 95.37 296.16 95.47 296.22L96.28 296.69C96.39 296.75 96.52 296.71 96.58 296.6L98.46 292.97C98.51 292.87 98.48 292.75 98.38 292.69L97.62 292.22C97.53 292.16 97.39 292.2 97.33 292.31Z" fill="#465EB7"/>
<path d="M50.22 192.43C49.83 192.43 49.43 192.3 49.1 192.04C42.87 187.17 35.38 184.6 27.44 184.6C19.5 184.6 12.01 187.17 5.78 192.04C4.98 192.66 3.84 192.52 3.22 191.72C2.6 190.93 2.74 189.78 3.54 189.16C10.42 183.79 18.69 180.95 27.45 180.95C36.21 180.95 44.48 183.79 51.36 189.16C52.16 189.78 52.3 190.93 51.68 191.72C51.3 192.19 50.76 192.43 50.22 192.43Z" fill="#9FBFF4"/>
<path d="M44.86 199.57C44.46 199.57 44.06 199.44 43.73 199.18C39.05 195.49 33.41 193.53 27.43 193.53C21.45 193.53 15.81 195.48 11.13 199.18C10.34 199.8 9.19 199.67 8.57 198.88C7.95 198.09 8.08 196.94 8.87 196.32C14.2 192.11 20.62 189.89 27.43 189.89C34.24 189.89 40.66 192.11 45.99 196.32C46.78 196.95 46.92 198.09 46.29 198.88C45.94 199.33 45.4 199.57 44.86 199.57Z" fill="#9FBFF4"/>
<path d="M15.69 207.18C15.16 207.18 14.63 206.95 14.27 206.5C13.64 205.72 13.76 204.57 14.54 203.93C18.18 200.98 22.76 199.36 27.44 199.36C32.12 199.36 36.7 200.98 40.34 203.93C41.12 204.56 41.24 205.71 40.61 206.5C39.98 207.28 38.83 207.4 38.04 206.77C35.05 204.35 31.29 203.01 27.44 203.01C23.59 203.01 19.83 204.34 16.84 206.77C16.5 207.04 16.09 207.18 15.69 207.18Z" fill="#9FBFF4"/>
<path d="M32.14 212.59C32.14 215.19 30.03 217.29 27.44 217.29C24.85 217.29 22.74 215.18 22.74 212.59C22.74 210 24.85 207.89 27.44 207.89C30.03 207.89 32.14 209.99 32.14 212.59Z" fill="#9FBFF4"/>
<path d="M27.31 340.74C27.26 340.74 27.21 340.75 27.15 340.75C22.11 340.64 13.22 314.64 0.42 316.13C0.28 316.14 0.14 316.16 0 316.18C0 316.18 12.16 310.39 18.29 313.56C28.66 318.91 29.5 340.54 27.31 340.74Z" fill="#9FBFF4"/>
<path d="M28.09 359.39C28.08 359.39 28.08 359.39 28.07 359.39C27.9 359.38 27.77 359.23 27.78 359.06C27.81 358.65 30.17 318.15 9.78 315.34C9.61 315.32 9.49 315.16 9.51 314.99C9.53 314.82 9.68 314.69 9.86 314.72C30.81 317.6 28.42 358.68 28.39 359.09C28.39 359.26 28.25 359.39 28.09 359.39Z" fill="#9FBFF4"/>
<path d="M61.3 325.06C61.29 325.06 61.27 325.06 61.26 325.05C48.31 323.03 39.32 349.28 34.21 349.62C34.13 349.63 34.05 349.63 33.98 349.62C31.8 349.43 32.63 327.81 43 322.45C48.97 319.36 60.69 324.78 61.27 325.05C61.29 325.06 61.3 325.06 61.3 325.06Z" fill="#9FBFF4"/>
<path d="M33.21 368.28C33.05 368.28 32.91 368.15 32.9 367.99C32.87 367.58 30.48 326.5 51.43 323.62C51.61 323.59 51.76 323.72 51.78 323.89C51.8 324.06 51.68 324.22 51.51 324.24C31.13 327.04 33.49 367.55 33.51 367.96C33.52 368.13 33.39 368.28 33.22 368.29C33.22 368.28 33.22 368.28 33.21 368.28Z" fill="#9FBFF4"/>
<path d="M28.93 323.25V323.29C28.92 323.37 28.91 323.41 28.91 323.41C28.91 323.41 22.08 317.97 18.96 303.5C14.89 284.7 7.53 280.86 7.53 280.86L7.12 280.65C7.26 280.62 7.39 280.6 7.53 280.58C17.36 278.76 24.81 283.53 27.64 294.96C30.79 307.63 29.14 321.64 28.93 323.25Z" fill="#9FBFF4"/>
<path d="M30.26 366.41C30.09 366.41 29.95 366.27 29.95 366.1L29.96 365.88C30.19 358.33 31.73 291.9 13.97 284.1C13.81 284.03 13.74 283.85 13.81 283.69C13.88 283.53 14.06 283.46 14.22 283.53C31.97 291.33 30.96 353.51 30.58 365.9L30.57 366.1C30.57 366.28 30.43 366.41 30.26 366.41Z" fill="#9FBFF4"/>
<path d="M54.45 289.24L54.03 289.44C54.03 289.44 46.67 293.28 42.61 312.09C39.55 326.21 32.98 331.73 32.67 331.98C32.66 331.99 32.66 331.99 32.66 331.99C32.66 331.99 30.59 317.02 33.93 303.54C36.8 291.99 44.4 287.24 54.4 289.23C54.41 289.23 54.43 289.24 54.45 289.24Z" fill="#9FBFF4"/>
<path d="M31.17 367.15C31 367.15 30.86 367.01 30.86 366.84C30.73 346.6 32.09 298.82 47.35 292.11C47.51 292.04 47.69 292.11 47.76 292.27C47.83 292.43 47.76 292.61 47.6 292.68C32.67 299.24 31.35 346.73 31.48 366.84C31.49 367.01 31.35 367.15 31.17 367.15Z" fill="#9FBFF4"/>
<path d="M36.18 370.5H24.74C24 370.5 23.39 369.94 23.33 369.2L21.87 354.21H39.06L37.6 369.2C37.53 369.94 36.92 370.5 36.18 370.5Z" fill="#465EB7"/>
<path d="M39.56 357.13H21.36C21.06 357.13 20.82 356.89 20.82 356.59V354.76C20.82 354.46 21.06 354.22 21.36 354.22H39.56C39.86 354.22 40.1 354.46 40.1 354.76V356.59C40.1 356.88 39.86 357.13 39.56 357.13Z" fill="#9FBFF4"/>
<path d="M424.84 375.99H2.81C1.55 375.99 0.530001 374.97 0.530001 373.71V372.61C0.530001 371.35 1.55 370.33 2.81 370.33H424.84C426.1 370.33 427.12 371.35 427.12 372.61V373.71C427.12 374.97 426.1 375.99 424.84 375.99Z" fill="#9FBFF4"/>
<path d="M362.28 211.25L366.61 210.51C366.61 210.51 366.46 209.63 366.39 209.64C366.32 209.65 362.19 210.33 362.19 210.33L362.28 211.25Z" fill="#465EB7"/>
<path d="M308.74 239.09C308.74 239.09 307.71 242.94 307.36 243.03C307.1 243.1 306.31 242.71 306.31 242.71C306.31 242.71 307.21 238.98 307.69 238.82C307.95 238.74 308.74 239.09 308.74 239.09Z" fill="#465EB7"/>
<path d="M350.99 233.25C350.59 233.53 349.79 233.84 348.13 233.95C345.77 234.12 344.23 233.67 343.63 233.45C343.94 233.39 344.12 233.36 344.12 233.36L350.99 233.25Z" fill="#465EB7"/>
<path d="M432.8 155.03L423.04 197.33L395.13 190.89L403.35 155.27L411.38 150.09L432.8 155.03Z" fill="#9FBFF4"/>
<path d="M411.38 150.09L409.84 156.77L403.35 155.27L411.38 150.09Z" fill="#D4DEF9"/>
<path d="M425.62 162.338L408.139 158.305L408.004 158.889L425.485 162.922L425.62 162.338Z" fill="white"/>
<path d="M424.811 165.858L407.33 161.825L407.195 162.41L424.676 166.443L424.811 165.858Z" fill="white"/>
<path d="M424 169.389L406.519 165.356L406.384 165.94L423.865 169.974L424 169.389Z" fill="white"/>
<path d="M423.181 172.908L405.7 168.874L405.565 169.459L423.046 173.492L423.181 172.908Z" fill="white"/>
<path d="M422.37 176.438L404.889 172.405L404.754 172.99L422.235 177.023L422.37 176.438Z" fill="white"/>
<path d="M421.561 179.959L404.08 175.926L403.945 176.511L421.426 180.544L421.561 179.959Z" fill="white"/>
<path d="M420.74 183.487L403.259 179.454L403.125 180.039L420.605 184.072L420.74 183.487Z" fill="white"/>
<path d="M419.931 187.008L402.451 182.975L402.316 183.56L419.796 187.593L419.931 187.008Z" fill="white"/>
<path d="M410.13 226.96L417.22 233.98H413.61V249.7H406.64V233.98H403.03L410.13 226.96ZM410.13 225.96C409.88 225.96 409.62 226.06 409.43 226.25L402.34 233.27C402.05 233.56 401.96 233.99 402.12 234.36C402.27 234.73 402.64 234.98 403.04 234.98H405.65V249.7C405.65 250.25 406.1 250.7 406.65 250.7H413.62C414.17 250.7 414.62 250.25 414.62 249.7V234.98H417.23C417.64 234.98 418 234.74 418.15 234.36C418.3 233.98 418.22 233.55 417.93 233.27L410.84 226.25C410.64 226.06 410.38 225.96 410.13 225.96Z" fill="#DEE2E2"/>
<path d="M47.3 243.5L54.39 250.52H50.79V266.24H43.81V250.52H40.21L47.3 243.5ZM47.3 242.5C47.05 242.5 46.79 242.6 46.6 242.79L39.51 249.81C39.22 250.1 39.13 250.53 39.29 250.9C39.44 251.27 39.81 251.52 40.21 251.52H42.82V266.24C42.82 266.79 43.27 267.24 43.82 267.24H50.79C51.34 267.24 51.79 266.79 51.79 266.24V251.52H54.39C54.8 251.52 55.16 251.28 55.31 250.9C55.46 250.52 55.38 250.09 55.09 249.81L48 242.79C47.81 242.59 47.55 242.5 47.3 242.5Z" fill="#DEE2E2"/>
<path d="M287 103.46L291.63 108.04H289.28V118.31H284.72V108.04H282.37L287 103.46ZM287 102.46C286.75 102.46 286.49 102.56 286.3 102.75L281.67 107.33C281.38 107.62 281.29 108.05 281.45 108.42C281.6 108.79 281.97 109.04 282.37 109.04H283.72V118.31C283.72 118.86 284.17 119.31 284.72 119.31H289.28C289.83 119.31 290.28 118.86 290.28 118.31V109.04H291.63C292.04 109.04 292.4 108.8 292.55 108.42C292.7 108.04 292.62 107.61 292.33 107.33L287.7 102.75C287.51 102.55 287.26 102.46 287 102.46Z" fill="#DEE2E2"/>
<path d="M22.21 132.12L29.3 139.14H25.7V154.86H18.73V139.13H15.11L22.21 132.12ZM22.21 131.12C21.96 131.12 21.7 131.22 21.51 131.41L14.42 138.43C14.13 138.72 14.04 139.15 14.2 139.52C14.34 139.89 14.71 140.13 15.11 140.13H17.71V154.85C17.71 155.4 18.16 155.85 18.71 155.85H25.68C26.23 155.85 26.68 155.4 26.68 154.85V140.13H29.28C29.69 140.13 30.05 139.89 30.2 139.51C30.35 139.13 30.27 138.7 29.98 138.42L22.89 131.4C22.71 131.21 22.46 131.12 22.21 131.12Z" fill="#DEE2E2"/>
<path d="M245.1 32.26C245.1 30.76 243.89 29.55 242.39 29.55H237.29C237.29 28.99 236.84 28.53 236.27 28.53H230.25V29.55H212.73C211.36 29.55 210.06 28.76 209.6 27.47C209.36 26.78 208.71 26.33 207.99 26.33H202.31C201.13 26.33 200.16 27.29 200.17 28.48V43.31L245.11 43.3L245.1 32.26Z" fill="#9FBFF4"/>
<path d="M242.35 33.1H202.93V50.62H242.35V33.1Z" fill="white"/>
<path d="M242.35 35.35H202.93V50.62H242.35V35.35Z" fill="white"/>
<path d="M242.35 37.57H202.93V50.62H242.35V37.57Z" fill="white"/>
<path d="M241.72 69.31L203.59 69.32C202.71 69.32 201.94 68.71 201.73 67.85L195.58 41.83C195.3 40.63 196.21 39.48 197.44 39.48L247.86 39.47C249.09 39.47 250 40.62 249.72 41.81L243.58 67.83C243.37 68.71 242.6 69.31 241.72 69.31Z" fill="#9FBFF4"/>
<path d="M239.65 66.69H228.19C227.17 66.69 226.34 65.86 226.34 64.84C226.34 63.82 227.17 62.99 228.19 62.99H239.65C240.67 62.99 241.5 63.82 241.5 64.84C241.49 65.86 240.67 66.69 239.65 66.69Z" fill="#D2E1F7"/>
<path d="M223.61 97.18H225.27L222.01 93.94L218.74 97.18H220.4" fill="#465EB7"/>
<path d="M248.92 97.18H250.58L247.31 93.94L244.05 97.18H245.71" fill="#465EB7"/>
<path d="M198.31 97.18H199.97L196.7 93.94L193.44 97.18H195.1" fill="#465EB7"/>
</svg>
